<svg xmlns="http://www.w3.org/2000/svg" width="141.692" height="142.735" viewBox="0 0 141.692 142.735">
  <g id="Gruppe_868" data-name="Gruppe 868" transform="translate(-463 -282)">
    <path id="Rechteck_966" data-name="Rechteck 966" d="M3475.45-29.985,3617.142-13.87,3594.963,94l-98.887,18.751Z" transform="translate(-3012.45 311.985)" fill="#00445f" fill-rule="evenodd"/>
    <g id="g604" transform="translate(490.209 320.324)">
      <path id="path535" d="M40.487,0A40.487,40.487,0,1,0,80.973,40.487,40.487,40.487,0,0,0,40.487,0Zm0,79.855A39.369,39.369,0,1,1,79.855,40.487,39.369,39.369,0,0,1,40.487,79.855Z" transform="translate(0)" fill="#fff" fill-rule="evenodd"/>
      <path id="path537" d="M64.2,37.362c-.54-1.2-.193-1.966-.347-2.815a32.73,32.73,0,0,0-1.658-4.164c-.27-.655,1.465-.5.154-2.93,0-.077,1.812-.771,0-2.121a10.179,10.179,0,0,1-2.314-2.583.386.386,0,0,1,0-.5c1.041-.925,1.08-2.236-.039-2.892s-1.735,0-2.583.54c-.27.193-.424.308-.733.193l-.694-.463a3.177,3.177,0,0,0,1.2-2.159c-.077-.154-1.774-.5-3.933.386l-.154-.116a2.867,2.867,0,0,0,.347-2.661H53.4a31.232,31.232,0,0,1,4.781-5.128h.039c.077-.116.116-.231-.077-.347l-.386-.231a35.628,35.628,0,0,0-52.9,31.078A36.437,36.437,0,0,0,20.05,69.6a5.2,5.2,0,0,0,1.08.617.424.424,0,0,0,.424-.077l.116-.193a.386.386,0,0,0,.116-.308c0-.27-.347-.5-.81-1.157a10.681,10.681,0,0,1-1.812-5.822A8.522,8.522,0,0,1,20.9,57.374c1.427,1.5,4.511,4.2,4.434,6.709s-2.661,2.622-2.082,4.7c.347,1.311,1.311.771,1.5,1.774.27,1.7,2.583,2.815,3.586,2.661.27-.039.463.154.925.655s2.391.617,3.162.463,1.581.54,3.085.347a28.3,28.3,0,0,1,3.162-.347,103.157,103.157,0,0,1,13.881.694c.925.154,1.2-.27.81-.964a11.1,11.1,0,0,1-1.08-9.64c1.928.154,4.7.656,8.329-1.542a4.241,4.241,0,0,0,1.967-3.663,9.859,9.859,0,0,1-.193-2.583,1.758,1.758,0,0,1,.81-1.234c1.388-1,.386-1.774.154-1.851a1.311,1.311,0,0,0,.424-1.774c-.27-.27-1.041-2.391-.154-2.815s2.044-.694,3.123-1.2a1.735,1.735,0,0,0,.925-2.314c-.54-1.388-3.393-7.943-3.47-8.1ZM24.908,69.019c-.27.077-1.118.116-.925-1.041s.887-1,1.272-.617S24.985,68.441,24.908,69.019ZM58.454,20.473c.463-.308.964-.424,1.272-.154,1,1-1.118,1.581-.694,2.352a11.838,11.838,0,0,0,2.892,3.239c.463.386.54,1.2-1.272,1.581s-9.1,2.275-12.956,6.362c-4.82,5.09-7.866,11.683-8.29,10.8s-1.388-1.08-1.234-1.35C45.074,31.424,55.909,22.054,58.454,20.473Zm3.162,8.367c-.386,1.118-3.509,2.121-3.355,1.35s0-.848.231-.887,1.35-.424,2.892-.81C61.539,28.455,61.732,28.532,61.616,28.841Zm-7.943,2.044c-.077-.463,3.278-1.581,3.393-1.272a3.677,3.677,0,0,1-1.812,2.7c-1.118.386-1.812.347-1.774.154A4.242,4.242,0,0,0,53.673,30.884ZM45.845,48.467c-1.542.964-2.391-.848-2.622-1.2a1.427,1.427,0,0,1-.193-1.2,9.66,9.66,0,0,0-.154-3.586c-.154-1.041,1.928-3.547,2.429-4.01s1.2.231,1.234,1a3.027,3.027,0,0,1-1.5,2.776c-.81.617-1.2,1.7-1,1.967a.578.578,0,0,0,.733-.347c.578-1.272,2.314-1.889,2.583-2.583a5.207,5.207,0,0,0,.077-2.159c-.039-.463.347-.463.617-.424s.54.54.694,1.041c1.118,2.892-1.658,4.627-2.121,5.321S47.041,47.735,45.845,48.467ZM48.2,37.247c-.848.578-2.044-.193-1.812-.54a16.85,16.85,0,0,1,4.434-4.241c1.311-.81,1.465-.887,1.542-.424a4.087,4.087,0,0,1-1,2.892,3.29,3.29,0,0,1-2.236,1c-.463.116-.308.887-.925,1.311Zm-7.442,9.871c-.386-.077-.54-.81-.463-1.118a19.117,19.117,0,0,1,1.542-2.468.193.193,0,0,1,.308.116C42.375,45.228,42.144,47.426,40.756,47.118ZM53.172,18.546a6.825,6.825,0,0,1,2.892-.617c.308.039-.733,1.851-2.545,2.622a8.882,8.882,0,0,1-3.432.887A7.848,7.848,0,0,1,53.172,18.546ZM21.052,48.737a3.438,3.438,0,0,0-1.118-.964A8.637,8.637,0,0,0,18.546,51.2a25.217,25.217,0,0,1-2.892-10.758c-.54-13.65,10.912-24.639,24.87-24.6a21.905,21.905,0,0,1,8.64,1.775,12.069,12.069,0,0,0-1.43,2.544c0-.733-.193-1.311-.154-1.774s-1.966.347-3.74,3.2a7.673,7.673,0,0,0-.848,2.044,4.446,4.446,0,0,0-.347-1.889,6.208,6.208,0,0,0-3.278,3.393,8.637,8.637,0,0,0-.424,1.311,2.343,2.343,0,0,0-.347-1.234,6.243,6.243,0,0,0-3.316,3.432,5.938,5.938,0,0,0-.424,1.774c-.193-.887-.54-1.427-.655-1.311-.733.925-2.2,1.35-2.93,3.7A5.09,5.09,0,0,0,31,34.432a2.345,2.345,0,0,0-.887-1.234,8.432,8.432,0,0,0-2.7,4.2,6.092,6.092,0,0,0,.077,2.236,10.009,10.009,0,0,1-1.2-1.851,5.847,5.847,0,0,0-2.236,4.126,7.6,7.6,0,0,0,.27,2.352,3.156,3.156,0,0,0-1.581-1.581,7.12,7.12,0,0,0-1.851,4.28,4.55,4.55,0,0,0,.154,1.774ZM49.624,18.006c1.08-1.311,2.93-2.352,3.162-2.236s-.308,2.159-1.5,3.316a12.955,12.955,0,0,1-3.316,2.352C47.773,21.4,48.622,19.162,49.624,18.006Zm-3.586,5.013a8.1,8.1,0,0,0-2.159,2.468c-.193.347-.733-1.928.655-4.087a7.405,7.405,0,0,1,2.506-2.391C47,19.162,47.851,21.553,46.038,23.018ZM42.144,25.91c-1.311,1.967-1.388,1.272-2.815,3.2a9.608,9.608,0,0,1,.424-3.625,6.438,6.438,0,0,1,2.391-2.892,3.9,3.9,0,0,1,0,3.316ZM37.864,29.8c-.655,1.157-1.272.887-2.391,2.583-.116.154-.424-1.388.27-3.509a4.858,4.858,0,0,1,2.275-2.661C38.249,26.18,38.674,28.417,37.864,29.8ZM33.892,33.93A7.333,7.333,0,0,1,31.964,36.4c-.116.154-.694-1.427-.154-3.393s1.542-2.159,2.044-2.7S34.625,32.35,33.892,33.93Zm-3.239,2.545a3.972,3.972,0,0,1-.154,1.157,8.525,8.525,0,0,1-2.044,3.123,6.054,6.054,0,0,1-.617-2.236A5.861,5.861,0,0,1,29.844,34.2C30.152,34.2,30.653,35.434,30.653,36.475Zm-3.277,4.936a5.745,5.745,0,0,1-1.967,4.164,6.825,6.825,0,0,1-.848-2.93,4.294,4.294,0,0,1,1.388-3.74C26.142,39.6,27.376,40.138,27.376,41.411ZM22.71,43.84A3.48,3.48,0,0,1,24.291,47a4.4,4.4,0,0,1-1.774,3.625c-.347-1.427-1-1.7-1-3.085A6.941,6.941,0,0,1,22.71,43.84Zm2.815,4.82a7.462,7.462,0,0,1,3.779-.578,4.9,4.9,0,0,1-2.275,3.162c-1.7.887-3.663,1.041-3.856.81S23.751,49.431,25.525,48.66Zm-.154-1.311a5.707,5.707,0,0,1,2.738-3.2h0a7.1,7.1,0,0,1,3.625-.578c.193.077-.655,2.159-2.236,2.93S26.99,46.848,25.371,47.349Zm2.661-4.55c.077-.154,1.35-2.468,2.853-3.162a6.748,6.748,0,0,1,3.432-.54,4.895,4.895,0,0,1-2.391,2.93C30.229,42.876,27.954,42.992,28.031,42.8Zm3.432-4.588a9.316,9.316,0,0,1,3.239-3.2,6.015,6.015,0,0,1,3.239-.386,4.559,4.559,0,0,1-2.506,2.892A9.331,9.331,0,0,1,31.463,38.21Zm4.126-4.55a6.8,6.8,0,0,1,2.853-3.046,5.792,5.792,0,0,1,3.432,0c.463.039-.5,1.735-2.545,2.468a7.386,7.386,0,0,1-3.74.578Zm4.627-4.4a8.134,8.134,0,0,1,3.123-2.815,6.324,6.324,0,0,1,3.547-.077c.193.077-1.08,1.928-2.969,2.506A8.025,8.025,0,0,1,40.216,29.265Zm4.666-3.817c-.193-.116,1.658-2.2,3.162-2.776a6.941,6.941,0,0,1,3.2-.386,5.059,5.059,0,0,1-2.738,2.583A6.826,6.826,0,0,1,44.882,25.448ZM19.317,67.554A34.938,34.938,0,0,1,5.976,40.447,34.433,34.433,0,0,1,56.411,9.908a.154.154,0,0,1,.039.27,37.517,37.517,0,0,0-3.933,4.4,28.187,28.187,0,0,0-12.069-2.7A28.649,28.649,0,0,0,11.875,40.447a27.8,27.8,0,0,0,6.9,18.585,8.907,8.907,0,0,0-.733,3.625,9.871,9.871,0,0,0,1.272,4.9Zm.077-9.563h-.039a26.683,26.683,0,0,1-6.324-17.544A27.454,27.454,0,0,1,40.447,13.032,27.03,27.03,0,0,1,51.861,15.5a8.715,8.715,0,0,0-1.581,1,24.33,24.33,0,0,0-9.832-1.967A25.95,25.95,0,0,0,14.536,40.447a24.65,24.65,0,0,0,5.707,16.195c-.193.347-.5.81-.848,1.35Zm1.35-2.159a5.2,5.2,0,0,1-1.7-3.2V52.4a6.978,6.978,0,0,1,.925-3.47c.193-.154,2.044,1.272,2.082,3.355a5.552,5.552,0,0,1-1.311,3.547Zm3.085-2.776a6.341,6.341,0,0,1,3.586-.424c-.116.116-.694,2.236-2.391,3.085a4.666,4.666,0,0,1-3.355.5c.887-1,.694-2.468,2.159-3.162Zm2.005,17.93a4.276,4.276,0,0,1,.193-2.815c.347-.386,1.889-.463,1.928-.039a10.493,10.493,0,0,0,.116,3.933C27.954,72.335,26.3,72.219,25.833,70.985Zm.116-4.28c-.116-.771.617-1.5.617-3.162s-2.545-4.858-4.28-6.671a7.519,7.519,0,0,0,3.046-.733,6.2,6.2,0,0,0,3.123-4.01,4.241,4.241,0,0,0-1.465-.154l.308-.154a6.135,6.135,0,0,0,3.008-4.28,6.555,6.555,0,0,0-1.542-.116l.771-.27a5.638,5.638,0,0,0,3.277-4.087,6.208,6.208,0,0,0-1.35-.154l.733-.308a6.1,6.1,0,0,0,3.123-3.972,4.049,4.049,0,0,0-1.272-.154,9.138,9.138,0,0,0,1.735-.578A5.564,5.564,0,0,0,39.1,34.2a4.2,4.2,0,0,0-1.157-.193,13.3,13.3,0,0,0,1.7-.5,5.176,5.176,0,0,0,3.393-3.316L41.6,29.882a9.447,9.447,0,0,0,2.545-.5c2.738-.925,3.7-2.583,3.779-3.316a2.314,2.314,0,0,0-.887-.308,11.3,11.3,0,0,0,1.812-.463,7.376,7.376,0,0,0,3.7-3.779,11.3,11.3,0,0,0,1.5-.617l.733-.347.617.424c.386.231.54.308.347.463A97.911,97.911,0,0,0,37.594,42.876c-.077.154-.231.116-.5.116-3.046-.231-4.781,3.432-3.432,6.863a6.875,6.875,0,0,1-1.735,2.121c-.116.077-.386.54.116.5s1.619-1.234,2.082-1.735c.154.231.848.771.5,1.08a24.524,24.524,0,0,1-5.36,4.049c-1,.463,1.619.81,6.054-3.2.27-.231.578.925.964,1.427-.771,2.506,1.118,7.365.81,8.869a1.08,1.08,0,0,1-1.08,1.041c-4.4.116-4.82-.116-7.056.54-1.041.308-.771,1-.039.81s1.774-.578,6.516-.27c1.2.039,2.506-.231,2.506-2.2s-1.388-7.095-.925-7.827a2.66,2.66,0,0,0,1.35.54c-.077,1.735,2.7,7.326,1.465,10.411-.463,1.157-2.468,1.041-5.938.694C27.993,66.127,26.065,67.4,25.949,66.705Zm13.534,3.817a2.163,2.163,0,0,1-2.815-2.468c.386-.578,1.7.386,2.815-.347S40.833,70.06,39.483,70.523ZM29.072,72.181c-.308-1.427-.424-3.856.154-4.434s1.889-.347,1.851.077c-.116,1.658-.81,3.547.463,5.437C32.041,73.993,29.535,74.109,29.072,72.181Zm4.4,1.619c-.617-.154-2.314-2.853-.925-6.092.116-.308,2.236-.116,2.622,0s-.308,2.622,2.622,3.779c.27.116-.039,3.393-4.319,2.314Zm18.2-8.984c-.964,3.393-1.465,4.743,0,8.444.193.5.347.887-.077.81-2.969-.54-3.625-1-12.994-.231-.655.077.231-1.311.116-2.236a2.653,2.653,0,0,0,2.506-1.889c.27-1.388-.81-2.93-.694-3.162,1.35-2.583-.077-5.437-1.2-10.257-.116-.463.154-.656.347-.424,6.015,6.516,9.832,7.789,11.915,8.406.193.077.154.308.077.54ZM67.053,47.04c-1.272,1.118-3.2,1.2-3.972,1.889s-.578.964-.154,2.005.424.656-.424.887-1.581,2.236-3.393,1.889c-.694-.116-.193.308.077.347a1.865,1.865,0,0,0,1.774-.54A4.436,4.436,0,0,1,62.349,52.4c.54-.193,1.118-.193,1.157.231s-.733.81-1.041.964c.386.193,1.5.733.54,1.388a1.5,1.5,0,0,1-1.889-.27c-.116-.077-.655-.077-.5.116s2.005.5,1.735.848c-1.35,1.812-.231,2.892-.655,4.743s-2.969,2.892-4.936,3.239c-6.709,1.2-13.226-4.473-17.043-8.791.347-.81.308-1.851-.039-1.465s-.27.925-1.08,1.118c-1.5.386-2.2-2.275-2.661-2.738a5.818,5.818,0,0,1-1.5-6.671,2.465,2.465,0,0,1,4.4-.424c.925,1.388.655,2.7,1.311,3.2s1.851.077,2.082,0,.655,1.658,3.085,1.581S47.581,45.344,47.966,45c3.316-3.239,1.619-6.131,1-6.786s.386-1.388.578-1.427a5.013,5.013,0,0,0,3.625-2.969s3.239-.077,4.4-2.391c.308-.617,1.272.578,3.432-1.118a.308.308,0,0,1,.54.116c1.427,3.432,2.005,4.357,1.889,6.092s3.355,8.29,3.625,8.907a1.593,1.593,0,0,1,0,1.619Z" transform="translate(0.039 0.04)" fill="#fff" fill-rule="evenodd"/>
      <path id="path539" d="M58.868,34.423c-1.889.077-4.087,2.391-4.781,2.7s-.5.578-.077.424,2.275-1.812,4.126-2.468,1.388.694,1.928.617-.116-1.311-1.2-1.272Z" transform="translate(0.436 0.28)" fill="#fff" fill-rule="evenodd"/>
      <path id="path541" d="M59.3,36.259c-.154.039.154.848-.655.887-1.774.116-3.2,1.812-4.28,2.314A4.974,4.974,0,0,1,52.9,40a.117.117,0,1,0,.039.231c4.511.617,6.247.424,6.285.27s-.231-.463-.154-.655a4.357,4.357,0,0,0,.039-2.121c-.077-.308.694-.116.694-.5s-.231-1-.5-.964ZM58.6,39.845c-.077.347-2.121.193-3.2.077-.27,0-.694-.039.116-.54A7.74,7.74,0,0,1,58.3,38.071a.308.308,0,0,1,.308.231A4.087,4.087,0,0,1,58.6,39.845Z" transform="translate(0.429 0.295)" fill="#fff" fill-rule="evenodd"/>
      <path id="path543" d="M64.444,46.217a8.3,8.3,0,0,0-2.275.964c-.54.347-1.7,1.041-1.619-.308.039-.5.347-1.7.347-2.044s-.386-.27-.424,0a14.228,14.228,0,0,1-.27,2.044.926.926,0,0,0,1.388,1.041A10.911,10.911,0,0,1,64.405,46.6c.231-.039.27-.386.039-.386Z" transform="translate(0.489 0.362)" fill="#fff" fill-rule="evenodd"/>
      <path id="path545" d="M38.47,51.155c-.27-.116-.193.463-.54.386s-.077-.5-.694-1.157-1.08-.463-1.658-1.388-.116-4.627,1.2-4.164.617,1.928.386,3.085.964,1.08,1.08.81-.424-.347-.54-.733,1.35-2.93-.694-3.625c-1.465-.5-2.468,1.388-2.275,3.432A3.085,3.085,0,0,0,36.7,50.538c.887.308.231,1.542,1.427,1.542C38.662,52.08,38.778,51.27,38.47,51.155Z" transform="translate(0.282 0.36)" fill="#fff" fill-rule="evenodd"/>
      <path id="path547" d="M50.224,12.8c.077.039.116,0,.193-.039l2.506-3.2a.193.193,0,0,0-.077-.231l-.424-.154a.154.154,0,0,0-.193.039l-2.506,3.2c-.077.077-.039.193.077.231Z" transform="translate(0.404 0.074)" fill="#fff" fill-rule="evenodd"/>
      <path id="path549" d="M45.593,11.506l.424.116a.193.193,0,0,0,.193-.116l1.465-3.625a.154.154,0,0,0-.116-.231L47.1,7.573h-.116l-1.5,3.7a.154.154,0,0,0,.116.231Z" transform="translate(0.369 0.062)" fill="#fff" fill-rule="evenodd"/>
      <path id="path551" d="M40.468,11.011h.424c.077.039.154-.039.154-.116l.386-3.856a.193.193,0,0,0-.154-.193h-.424c-.116,0-.154.077-.193.154l-.347,3.856A.154.154,0,0,0,40.468,11.011Z" transform="translate(0.328 0.056)" fill="#fff" fill-rule="evenodd"/>
      <path id="path553" d="M35.5,11.393l.424-.077c.077,0,.154-.077.116-.154l-.733-3.817c0-.077-.077-.154-.154-.116h-.463c-.077.039-.154.116-.116.193l.733,3.817C35.309,11.355,35.386,11.393,35.5,11.393Z" transform="translate(0.281 0.059)" fill="#fff" fill-rule="evenodd"/>
      <path id="path555" d="M30.383,12.577l.193.077L31,12.5a.154.154,0,0,0,.116-.231L29.342,8.8a.154.154,0,0,0-.193-.077l-.386.116a.154.154,0,0,0-.116.231Z" transform="translate(0.233 0.071)" fill="#fff" fill-rule="evenodd"/>
      <path id="path557" d="M25.647,14.753c.039.077.116.077.193.039l.386-.231a.154.154,0,0,0,.039-.231L23.681,11.36c-.077-.077-.154-.077-.193-.039l-.386.231c-.116.039-.116.154-.039.231Z" transform="translate(0.187 0.092)" fill="#fff" fill-rule="evenodd"/>
      <path id="path559" d="M21.216,17.885c.077.039.154.039.193-.039l.347-.27a.193.193,0,0,0,0-.27l-3.277-2.275h-.193l-.347.308a.193.193,0,0,0,0,.27Z" transform="translate(0.145 0.122)" fill="#fff" fill-rule="evenodd"/>
      <path id="path561" d="M17.4,21.857a.154.154,0,0,0,.154-.077l.308-.347c.077-.077.039-.193-.077-.231L14,19.736c-.077-.039-.154-.039-.193.039l-.27.347a.154.154,0,0,0,.077.27Z" transform="translate(0.11 0.16)" fill="#fff" fill-rule="evenodd"/>
      <path id="path563" d="M10.252,25.938l4.049.578c.077,0,.154-.039.154-.116l.231-.386a.154.154,0,0,0-.116-.231l-4.049-.578-.193.077a2.082,2.082,0,0,1-.193.424.154.154,0,0,0,.116.231Z" transform="translate(0.082 0.205)" fill="#fff" fill-rule="evenodd"/>
      <path id="path565" d="M8.072,32.023l4.126-.386a.116.116,0,0,0,.116-.116,2.93,2.93,0,0,0,.154-.424.154.154,0,0,0-.154-.231l-4.164.386-.154.116-.116.463C7.879,31.946,7.956,32.061,8.072,32.023Z" transform="translate(0.064 0.251)" fill="#fff" fill-rule="evenodd"/>
      <path id="path567" d="M11.2,36.915c0-.154.039-.347.039-.5s-.077-.193-.193-.154l-4.01,1.388c-.077.039-.116.077-.116.154s-.039.308-.039.463a.154.154,0,0,0,.231.154l3.972-1.388a.116.116,0,0,0,.116-.116Z" transform="translate(0.056 0.295)" fill="#fff" fill-rule="evenodd"/>
      <path id="path569" d="M11.086,42.384v-.5a.193.193,0,0,0-.27-.154L7.191,44.158c-.077,0-.077.077-.077.154s.039.308.039.463a.193.193,0,0,0,.27.116L11.047,42.5C11.086,42.461,11.124,42.423,11.086,42.384Z" transform="translate(0.058 0.339)" fill="#fff" fill-rule="evenodd"/>
      <path id="path571" d="M12,47.815l-.116-.5a.154.154,0,0,0-.27-.077L8.644,50.514c-.039.039-.077.116-.039.154a2.113,2.113,0,0,1,.154.463.154.154,0,0,0,.27.077l2.93-3.239c.039-.039.039-.077.039-.154Z" transform="translate(0.07 0.383)" fill="#fff" fill-rule="evenodd"/>
      <path id="path573" d="M13.48,52.668,11.4,56.64c-.039.039,0,.116,0,.154l.27.463a.154.154,0,0,0,.27-.039l2.082-3.933c0-.039.039-.077,0-.154l-.231-.463a.193.193,0,0,0-.308,0Z" transform="translate(0.092 0.427)" fill="#fff" fill-rule="evenodd"/>
      <path id="path575" d="M16.42,57.1c-.077-.116-.27-.077-.27.039L15.032,61.77c-.039.077,0,.116,0,.154l.386.386a.154.154,0,0,0,.27-.039l1.08-4.588c.039-.039,0-.077,0-.116Z" transform="translate(0.122 0.463)" fill="#fff" fill-rule="evenodd"/>
    </g>
  </g>
</svg>